inDegrees=no
num_controls=7
num_derivatives=13
num_iterations=77
num_multipliers=7
num_parameters=0
num_slacks=7
num_states=26
objective=0.426590
objective_accelerations=0.057700
objective_balance=0.001330
objective_effort=0.014511
objective_height=0.347207
objective_ligament=0.005841
solver_duration=1135.649322
status=Solve_Succeeded
success=true
DataType=double
version=3
OpenSimVersion=4.5
endheader
time	/jointset/ground_pelvis/pelvis_tilt/value	/jointset/ground_pelvis/pelvis_tx/value	/jointset/ground_pelvis/pelvis_ty/value	/jointset/hip_l/hip_flexion_l/value	/jointset/hip_l/hip_adduction_l/value	/jointset/hip_l/hip_rotation_l/value	/jointset/back/lumbar_extension/value	/jointset/patellofemoral_l/patellar_flexion_l/value	/jointset/knee_l/knee_flexion_l/value	/jointset/knee_l/knee_adduction_l/value	/jointset/knee_l/knee_rotation_l/value	/jointset/ankle_l/ankle_angle_l/value	/jointset/subtalar_l/subtalar_angle_l/value	/jointset/ground_pelvis/pelvis_tilt/speed	/jointset/ground_pelvis/pelvis_tx/speed	/jointset/ground_pelvis/pelvis_ty/speed	/jointset/hip_l/hip_flexion_l/speed	/jointset/hip_l/hip_adduction_l/speed	/jointset/hip_l/hip_rotation_l/speed	/jointset/back/lumbar_extension/speed	/jointset/patellofemoral_l/patellar_flexion_l/speed	/jointset/knee_l/knee_flexion_l/speed	/jointset/knee_l/knee_adduction_l/speed	/jointset/knee_l/knee_rotation_l/speed	/jointset/ankle_l/ankle_angle_l/speed	/jointset/subtalar_l/subtalar_angle_l/speed	/forceset/tau_hip_flexion_l	/forceset/tau_hip_adduction_l	/forceset/tau_hip_rotation_l	/forceset/tau_knee_flexion_l	/forceset/tau_ankle_angle_l	/forceset/tau_subtalar_angle_l	/forceset/tau_lumbar_extension	lambda_cid13_p0	lambda_cid13_p1	lambda_cid13_p2	lambda_cid13_p3	lambda_cid13_p4	lambda_cid13_p5	lambda_cid14_p0	/jointset/ground_pelvis/pelvis_tilt/accel	/jointset/ground_pelvis/pelvis_tx/accel	/jointset/ground_pelvis/pelvis_ty/accel	/jointset/hip_l/hip_flexion_l/accel	/jointset/hip_l/hip_adduction_l/accel	/jointset/hip_l/hip_rotation_l/accel	/jointset/back/lumbar_extension/accel	/jointset/patellofemoral_l/patellar_flexion_l/accel	/jointset/knee_l/knee_flexion_l/accel	/jointset/knee_l/knee_adduction_l/accel	/jointset/knee_l/knee_rotation_l/accel	/jointset/ankle_l/ankle_angle_l/accel	/jointset/subtalar_l/subtalar_angle_l/accel	gamma_cid13_p0	gamma_cid13_p1	gamma_cid13_p2	gamma_cid13_p3	gamma_cid13_p4	gamma_cid13_p5	gamma_cid14_p0
1.5	-0.33467518064834	0.04877704235257303	0.7923851774793907	0.9999825349837281	-0.3535045141561152	-0.05996970672884618	-0.3313336920961216	0.8149032344298516	0.8149032344296688	-0.02182691297642446	-0.1719872084582497	0.2693081637900446	0.1588932145528138	0.4663645875783163	0.2635673722861562	0.4920271873444967	-2.276686522767461	0.006491007458764912	-0.5765135459586319	0.6065039711600265	-2.193460154345522	-2.193460154345346	-0.3116268773757749	0.03899344535709509	-0.5520964727818812	-0.2108145488144959	-0.1269693080294663	0.05336449885577739	-0.00253806569179087	-0.1402654608886733	-0.0150650705537342	0.001640368356770103	0.1238516958694685	-29.10431104738237	4.404094054147005	-1.006618640003462	-6.657273850293241	-431.3385400601028	-44.58328374663275	-10.28910259606936	0.5318842832392393	0.677457195356631	-0.731942500180509	-1.403166748646766	0.3074290063824174	-0.5232870384137305	1.723461402893579	-1.211480789039194	-1.21148078903913	-0.1036704184117791	0.3490774479390604	-0.3984298648237873	0.4636007656604705	6.092005015415544e-07	-7.546414109821796e-07	-7.057627881179747e-06	-4.359529343537802e-07	1.360702224045721e-06	1.490982332162943e-06	7.519978202328021e-07
1.51	-0.3299849609021261	0.05144615016544438	0.7972678318470579	0.9771472353651501	-0.3534266430468902	-0.06575318890991758	-0.3251842573785614	0.7929102054208395	0.7929102054206117	-0.02495775977674875	-0.1715776153472336	0.2637670204428486	0.1568047588417847	0.471601121434918	0.2702031127278424	0.4843897821885138	-2.290035838085157	0.009090304260666338	-0.5800730007644461	0.6232869443853566	-2.204828855700368	-2.204828855700147	-0.3145309926070217	0.04298826068963202	-0.5560516172906369	-0.2068458732562044	-0.1228967431794525	0.0524922415538041	-0.001728333158478101	-0.1364757847167092	-0.01586115432261032	0.0005714348635916362	0.1203413484870824	-29.25012757310041	4.677359224123629	-0.8028873217109164	-6.135036962518574	-428.0102220293141	-44.14059505894225	-11.19594964179258	0.5078569322900628	0.6488952371530804	-0.7964367573060636	-1.250093970312824	0.2383506966874782	-0.2549638435158579	1.641311087396636	-1.052197528479484	-1.052197528472537	-0.3823590285740767	0.4328562981211072	-0.3819652155153391	0.3689982786897903	6.088379467963755e-07	-5.121535703581341e-07	-7.000056064726766e-06	-3.976952956780563e-07	1.414246833618412e-06	1.777311666266997e-06	7.55573974514141e-07
1.52	-0.3252447120182632	0.05418006793644825	0.802070752716366	0.954188586583998	-0.3533223448337271	-0.07156880346741583	-0.3188698737677395	0.7708129628543279	0.7708129628540483	-0.02811736312001576	-0.1711264395384471	0.2581887439562418	0.1547570893518938	0.4763704151082969	0.2765293639126606	0.4760804876725996	-2.301356355282122	0.01177642824630383	-0.5829400212442823	0.6394937498124453	-2.214302865846099	-2.214302865845831	-0.3173781859619847	0.04730998491057267	-0.5595231006639498	-0.2026573045868615	-0.1188241783294415	0.05161998425184131	-0.0009186006252297726	-0.1326861085447433	-0.0166572380914819	-0.0004974986295704084	0.1168310011046902	-29.39039276356529	4.948201832634756	-0.5971079906718495	-5.675963618944789	-424.6106642276352	-43.80652140803816	-12.09965615631655	0.438436246594721	0.6155593439829963	-0.866320372166777	-0.9974071245003276	0.3247944431296473	-0.3848001732180933	1.608227843245361	-0.8325425472158335	-0.8325425472158452	-0.0922860431549713	0.4144592256198115	-0.3016976377352237	0.5075793878707419	5.89164708076261e-07	1.282398712684744e-07	-6.731154018084587e-06	-2.99033357874295e-07	1.438451240459202e-06	2.166348873827287e-06	7.711012853309771e-07
1.53	-0.3204591242084807	0.05697593306579724	0.8067873509556654	0.931126403870439	-0.3531910005218257	-0.07741303052239809	-0.3123969301986529	0.7486304051682598	0.7486304051680285	-0.03130325136977506	-0.1706329945624064	0.2525785947830524	0.1527523324122734	0.4806412685819081	0.2826125420396245	0.4671339846801731	-2.310738909493012	0.01449458527196205	-0.5858466124029851	0.6549645091628956	-2.221869342654738	-2.221869342654561	-0.3197573654265931	0.05139185385093955	-0.5623777104837321	-0.198252448028244	-0.1137248476077895	0.04917101362487356	2.645976697584516e-05	-0.1311061845321611	-0.01466560429183855	-0.001331015484430663	0.1126622560407846	-28.62274852042485	5.041948397823382	-0.4591770459837831	-6.017230498556974	-421.4608027969331	-44.16550245204753	-12.99928687926526	0.4055802026117192	0.6000192566084255	-0.9243060387558332	-0.8574091653402152	0.246395854377208	-0.2338931158710882	1.496931754682675	-0.6679638263196159	-0.6679638263332919	-0.3043955937594549	0.4059096235950524	-0.2579084366478169	0.4136166460592901	5.489738676327778e-07	1.191408013960301e-06	-6.237713601866388e-06	-1.361918522469946e-07	1.431481681897347e-06	2.664513196934827e-06	7.993266999667788e-07
1.54	-0.3156339938029882	0.0598316944183269	0.8114113860098461	0.9079806496955803	-0.3530322607352487	-0.08328438439470014	-0.3057731926813144	0.72638232999825	0.7263823299982831	-0.03451166375330408	-0.1700985591179163	0.2469437863551552	0.1507929596094797	0.4842789342502145	0.2885086085487931	0.4575678506487735	-2.318070647542175	0.01725552318134743	-0.5883653847086764	0.6696525394628604	-2.227406362608644	-2.227406362608558	-0.3218830127170277	0.05550807860530411	-0.5644549516054398	-0.1935804772215453	-0.1086255168861318	0.0467220429979231	0.0009715201592796369	-0.1295262605195718	-0.01267397049218857	-0.002164532339267889	0.1084935109768784	-27.84920194608075	5.135531789078509	-0.3222106685100242	-6.409416010812562	-418.2146790771292	-44.62133074369748	-13.89478110575033	0.311798685533822	0.5781370204238871	-0.9902465799613749	-0.5872438921548239	0.3333506198750806	-0.3072364026157877	1.451682033148312	-0.4266511762691428	-0.4266511762691219	-0.04157960832020468	0.4213303884193499	-0.1462238981203172	0.5610022374870056	4.905417063878728e-07	1.842230999935846e-06	-5.608423264163148e-06	-1.651350494303231e-08	1.359209051468743e-06	2.879025936122597e-06	7.783435843906439e-07
